<?xml version="1.0" encoding="utf-8"?>
<svg xmlns="http://www.w3.org/2000/svg" xmlns:xlink="http://www.w3.org/1999/xhtml">
    <!--

    Скопировать эту конструкцию:

    <symbol id="test" xmlns="http://www.w3.org/2000/svg" viewBox="0 0 512 512">

    </symbol>


    - id="test" - поменять значение id
    - viewBox="0 0 640 512" - поменять 640 512
    - вставить тег <path d=""/>


    -->
    <symbol id="plus" viewBox="0 0 448 512" xmlns="http://www.w3.org/2000/svg">
        <path d="M416 208H272V64c0-17.67-14.33-32-32-32h-32c-17.67 0-32 14.33-32 32v144H32c-17.67 0-32 14.33-32 32v32c0 17.67 14.33 32 32 32h144v144c0 17.67 14.33 32 32 32h32c17.67 0 32-14.33 32-32V304h144c17.67 0 32-14.33 32-32v-32c0-17.67-14.33-32-32-32z"/>
    </symbol>
    <symbol id="minus" xmlns="http://www.w3.org/2000/svg" viewBox="0 0 448 512">
        <path d="M416 208H32c-17.67 0-32 14.33-32 32v32c0 17.67 14.33 32 32 32h384c17.67 0 32-14.33 32-32v-32c0-17.67-14.33-32-32-32z"/>
    </symbol>
</svg>